<svg xmlns="http://www.w3.org/2000/svg" viewBox="0 0 64 64">
  <rect width="64" height="64" rx="12" fill="#6f42c1"/>
  <g transform="translate(4 60) scale(0.027764 -0.037509)" fill="#ffffff" fill-rule="evenodd">
    <path d="M562 1493H1431Q1711 1493 1836.5 1399Q1962 1305 1962 1098Q1962 989 1916.5 912.5Q1871 836 1783 799Q1895 763 1956 666Q2017 569 2017 428Q2017 212 1885.5 106Q1754 0 1486 0H911V350H466L334 0H0ZM802 1237 572 627H911V1237ZM1449 915Q1531 915 1573.5 955Q1616 995 1616 1073Q1616 1150 1573.5 1190.5Q1531 1231 1449 1231H1258V915ZM1461 262Q1566 262 1618.5 311Q1671 360 1671 459Q1671 556 1618.5 604.5Q1566 653 1461 653H1258V262Z"/>
  </g>
</svg>
